<svg width="220" height="58" viewBox="0 0 220 58" fill="none" xmlns="http://www.w3.org/2000/svg">
<path d="M38.3578 25.7048C53.749 26.7542 51.6502 32.934 52 38.2976H33.1108C26.1148 31.5348 11.6331 17.5895 9.67422 15.9105C7.71534 14.2314 11.19 12.8789 13.1722 12.4125C16.0872 9.61406 22.267 3.73742 23.6662 2.61806C25.0654 1.4987 26.348 2.15166 26.8144 2.61806C26.4646 4.01725 31.7457 14.2815 34.1602 9.96386C35.6796 7.247 38.3578 7.16546 38.3578 8.91446C38.3578 7.18051 38.3578 11.085 38.3578 25.3317M38.3578 25.7048C38.3578 25.5797 38.3578 25.4553 38.3578 25.3317M38.3578 25.7048V25.3317" stroke="#E733B8" stroke-width="3"/>
<path d="M32.8812 20.8076H40.9266" stroke="#E733B8" stroke-width="3"/>
<path d="M32.8812 16.9598H40.5768" stroke="#E733B8" stroke-width="3"/>
<path d="M33.231 13.1121H40.227" stroke="#E733B8" stroke-width="3"/>
<path d="M4.19763 2.26828H23.7864" stroke="#E733B8" stroke-width="3"/>
<path d="M6.64618 6.11606H19.5888" stroke="#E733B8" stroke-width="3"/>
<path d="M5.24701 10.3137H15.3912" stroke="#E733B8" stroke-width="3"/>
<path d="M0 15.2108H9.09479" stroke="#E733B8" stroke-width="3"/>
<path d="M2.7984 19.0587H13.2924" stroke="#E733B8" stroke-width="3"/>
<path d="M3.14819 24.6555H19.239" stroke="#E733B8" stroke-width="3"/>
<path d="M12.5928 29.9024H24.486" stroke="#E733B8" stroke-width="3"/>
<path d="M6.99597 35.1494H30.0828" stroke="#E733B8" stroke-width="3"/>
<path d="M69.296 14.296C72.656 14.296 75.104 14.956 76.64 16.276C78.176 17.596 78.944 19.456 78.944 21.856C78.944 22.912 78.764 23.932 78.404 24.916C78.068 25.876 77.504 26.74 76.712 27.508C75.92 28.276 74.864 28.888 73.544 29.344C72.224 29.776 70.604 29.992 68.684 29.992H65.732V40H62.492V14.296H69.296ZM69.008 17.068H65.732V27.22H68.324C69.956 27.22 71.312 27.052 72.392 26.716C73.472 26.356 74.276 25.792 74.804 25.024C75.332 24.256 75.596 23.248 75.596 22C75.596 20.344 75.068 19.108 74.012 18.292C72.956 17.476 71.288 17.068 69.008 17.068ZM91.3089 20.344C92.9649 20.344 94.3809 20.704 95.5569 21.424C96.7569 22.144 97.6689 23.164 98.2929 24.484C98.9409 25.78 99.2649 27.304 99.2649 29.056V30.964H86.0529C86.1009 33.148 86.6529 34.816 87.7089 35.968C88.7889 37.096 90.2889 37.66 92.2089 37.66C93.4329 37.66 94.5129 37.552 95.4489 37.336C96.4089 37.096 97.3929 36.76 98.4009 36.328V39.1C97.4169 39.532 96.4449 39.844 95.4849 40.036C94.5249 40.252 93.3849 40.36 92.0649 40.36C90.2409 40.36 88.6209 39.988 87.2049 39.244C85.8129 38.5 84.7209 37.396 83.9289 35.932C83.1609 34.444 82.7769 32.632 82.7769 30.496C82.7769 28.384 83.1249 26.572 83.8209 25.06C84.5409 23.548 85.5369 22.384 86.8089 21.568C88.1049 20.752 89.6049 20.344 91.3089 20.344ZM91.2729 22.936C89.7609 22.936 88.5609 23.428 87.6729 24.412C86.8089 25.372 86.2929 26.716 86.1249 28.444H95.9529C95.9529 27.34 95.7849 26.38 95.4489 25.564C95.1129 24.748 94.5969 24.112 93.9009 23.656C93.2289 23.176 92.3529 22.936 91.2729 22.936ZM113.177 20.344C113.537 20.344 113.921 20.368 114.329 20.416C114.761 20.44 115.133 20.488 115.445 20.56L115.049 23.476C114.737 23.404 114.389 23.344 114.005 23.296C113.645 23.248 113.297 23.224 112.961 23.224C112.217 23.224 111.509 23.38 110.837 23.692C110.165 24.004 109.565 24.448 109.037 25.024C108.509 25.576 108.089 26.248 107.777 27.04C107.489 27.832 107.345 28.72 107.345 29.704V40H104.177V20.704H106.769L107.129 24.232H107.273C107.681 23.512 108.173 22.864 108.749 22.288C109.325 21.688 109.985 21.22 110.729 20.884C111.473 20.524 112.289 20.344 113.177 20.344ZM127.94 23.152H123.08V40H119.912V23.152H116.528V21.676L119.912 20.596V19.48C119.912 17.824 120.152 16.48 120.632 15.448C121.136 14.416 121.856 13.66 122.792 13.18C123.728 12.7 124.856 12.46 126.176 12.46C126.944 12.46 127.64 12.532 128.264 12.676C128.912 12.796 129.464 12.94 129.92 13.108L129.092 15.592C128.708 15.472 128.264 15.352 127.76 15.232C127.256 15.112 126.74 15.052 126.212 15.052C125.156 15.052 124.364 15.412 123.836 16.132C123.332 16.828 123.08 17.932 123.08 19.444V20.704H127.94V23.152ZM138.875 20.344C140.531 20.344 141.947 20.704 143.123 21.424C144.323 22.144 145.235 23.164 145.859 24.484C146.507 25.78 146.831 27.304 146.831 29.056V30.964H133.619C133.667 33.148 134.219 34.816 135.275 35.968C136.355 37.096 137.855 37.66 139.775 37.66C140.999 37.66 142.079 37.552 143.015 37.336C143.975 37.096 144.959 36.76 145.967 36.328V39.1C144.983 39.532 144.011 39.844 143.051 40.036C142.091 40.252 140.951 40.36 139.631 40.36C137.807 40.36 136.187 39.988 134.771 39.244C133.379 38.5 132.287 37.396 131.495 35.932C130.727 34.444 130.343 32.632 130.343 30.496C130.343 28.384 130.691 26.572 131.387 25.06C132.107 23.548 133.103 22.384 134.375 21.568C135.671 20.752 137.171 20.344 138.875 20.344ZM138.839 22.936C137.327 22.936 136.127 23.428 135.239 24.412C134.375 25.372 133.859 26.716 133.691 28.444H143.519C143.519 27.34 143.351 26.38 143.015 25.564C142.679 24.748 142.163 24.112 141.467 23.656C140.795 23.176 139.919 22.936 138.839 22.936ZM159.484 40.36C157.78 40.36 156.256 40.012 154.912 39.316C153.592 38.62 152.548 37.54 151.78 36.076C151.036 34.612 150.664 32.74 150.664 30.46C150.664 28.084 151.06 26.152 151.852 24.664C152.644 23.176 153.712 22.084 155.056 21.388C156.424 20.692 157.972 20.344 159.7 20.344C160.684 20.344 161.632 20.452 162.544 20.668C163.456 20.86 164.2 21.1 164.776 21.388L163.804 24.016C163.228 23.8 162.556 23.596 161.788 23.404C161.02 23.212 160.3 23.116 159.628 23.116C158.332 23.116 157.264 23.392 156.424 23.944C155.584 24.496 154.96 25.312 154.552 26.392C154.144 27.472 153.94 28.816 153.94 30.424C153.94 31.96 154.144 33.268 154.552 34.348C154.96 35.428 155.572 36.244 156.388 36.796C157.204 37.348 158.224 37.624 159.448 37.624C160.504 37.624 161.428 37.516 162.22 37.3C163.036 37.084 163.78 36.82 164.452 36.508V39.316C163.804 39.652 163.084 39.904 162.292 40.072C161.524 40.264 160.588 40.36 159.484 40.36ZM175.484 37.768C175.964 37.768 176.456 37.732 176.96 37.66C177.464 37.564 177.872 37.468 178.184 37.372V39.784C177.848 39.952 177.368 40.084 176.744 40.18C176.12 40.3 175.52 40.36 174.944 40.36C173.936 40.36 173 40.192 172.136 39.856C171.296 39.496 170.612 38.884 170.084 38.02C169.556 37.156 169.292 35.944 169.292 34.384V23.152H166.556V21.64L169.328 20.38L170.588 16.276H172.46V20.704H178.04V23.152H172.46V34.312C172.46 35.488 172.736 36.364 173.288 36.94C173.864 37.492 174.596 37.768 175.484 37.768Z" fill="#FBF601"/>
<path d="M185.72 40H182.48V14.296H196.844V17.14H185.72V26.248H196.16V29.092H185.72V40ZM203.884 20.704V40H200.716V20.704H203.884ZM202.336 13.468C202.816 13.468 203.236 13.636 203.596 13.972C203.98 14.284 204.172 14.788 204.172 15.484C204.172 16.156 203.98 16.66 203.596 16.996C203.236 17.332 202.816 17.5 202.336 17.5C201.808 17.5 201.364 17.332 201.004 16.996C200.644 16.66 200.464 16.156 200.464 15.484C200.464 14.788 200.644 14.284 201.004 13.972C201.364 13.636 201.808 13.468 202.336 13.468ZM216.441 37.768C216.922 37.768 217.414 37.732 217.918 37.66C218.422 37.564 218.83 37.468 219.142 37.372V39.784C218.806 39.952 218.326 40.084 217.702 40.18C217.078 40.3 216.478 40.36 215.902 40.36C214.894 40.36 213.958 40.192 213.094 39.856C212.254 39.496 211.57 38.884 211.042 38.02C210.514 37.156 210.25 35.944 210.25 34.384V23.152H207.514V21.64L210.286 20.38L211.546 16.276H213.418V20.704H218.998V23.152H213.418V34.312C213.418 35.488 213.694 36.364 214.246 36.94C214.822 37.492 215.554 37.768 216.441 37.768Z" fill="#43B438"/>
</svg>
