<svg width="225" height="56" viewBox="0 0 225 56" fill="none" xmlns="http://www.w3.org/2000/svg">
<path d="M30.9605 26.1334C43.3835 26.9804 41.6895 31.9684 41.9718 36.2976H26.7254C21.0786 30.8391 9.38968 19.5831 7.80857 18.2278C6.22746 16.8726 9.03205 15.7809 10.632 15.4044C12.9848 13.1457 17.9728 8.40236 19.1022 7.49886C20.2316 6.59537 21.2668 7.12241 21.6433 7.49886C21.3609 8.62822 25.6235 16.913 27.5724 13.428C28.7988 11.2351 30.9605 11.1693 30.9605 12.581C30.9605 11.1814 30.9605 14.333 30.9605 25.8322M30.9605 26.1334C30.9605 26.0323 30.9605 25.9319 30.9605 25.8322M30.9605 26.1334V25.8322" stroke="#E733B8" stroke-width="2"/>
<path d="M26.54 22.1806H33.0339" stroke="#E733B8" stroke-width="2"/>
<path d="M26.54 19.0748H32.7515" stroke="#E733B8" stroke-width="2"/>
<path d="M26.8224 15.9691H32.4692" stroke="#E733B8" stroke-width="2"/>
<path d="M3.38812 7.21655H19.1992" stroke="#E733B8" stroke-width="2"/>
<path d="M5.36444 10.3223H15.8111" stroke="#E733B8" stroke-width="2"/>
<path d="M4.23511 13.7104H12.423" stroke="#E733B8" stroke-width="2"/>
<path d="M0 17.6631H7.34086" stroke="#E733B8" stroke-width="2"/>
<path d="M2.25873 20.7689H10.729" stroke="#E733B8" stroke-width="2"/>
<path d="M2.54102 25.2864H15.5287" stroke="#E733B8" stroke-width="2"/>
<path d="M10.1642 29.5215H19.7638" stroke="#E733B8" stroke-width="2"/>
<path d="M5.64679 33.7566H24.2813" stroke="#E733B8" stroke-width="2"/>
<path d="M60.4198 12.296C63.7318 12.296 66.1438 13.016 67.6558 14.456C69.1918 15.872 69.9598 17.828 69.9598 20.324C69.9598 21.452 69.7918 22.532 69.4558 23.564C69.1198 24.572 68.5558 25.484 67.7638 26.3C66.9958 27.092 65.9758 27.716 64.7038 28.172C63.4318 28.628 61.8598 28.856 59.9878 28.856H57.6478V38H52.2118V12.296H60.4198ZM60.1318 16.76H57.6478V24.392H59.4478C60.4798 24.392 61.3678 24.26 62.1118 23.996C62.8558 23.732 63.4318 23.312 63.8398 22.736C64.2478 22.16 64.4518 21.416 64.4518 20.504C64.4518 19.232 64.1038 18.296 63.4078 17.696C62.7118 17.072 61.6198 16.76 60.1318 16.76ZM82.4853 17.984C84.3093 17.984 85.8693 18.332 87.1653 19.028C88.4853 19.724 89.5053 20.732 90.2253 22.052C90.9453 23.372 91.3053 24.992 91.3053 26.912V29.504H78.6333C78.6813 31.016 79.1253 32.204 79.9653 33.068C80.8293 33.932 82.0173 34.364 83.5293 34.364C84.8013 34.364 85.9533 34.244 86.9853 34.004C88.0173 33.74 89.0853 33.344 90.1893 32.816V36.956C89.2293 37.436 88.2093 37.784 87.1293 38C86.0733 38.24 84.7893 38.36 83.2773 38.36C81.3093 38.36 79.5693 38 78.0573 37.28C76.5453 36.536 75.3573 35.42 74.4933 33.932C73.6293 32.444 73.1973 30.572 73.1973 28.316C73.1973 26.012 73.5813 24.104 74.3493 22.592C75.1413 21.056 76.2333 19.904 77.6253 19.136C79.0173 18.368 80.6373 17.984 82.4853 17.984ZM82.5213 21.8C81.4893 21.8 80.6253 22.136 79.9293 22.808C79.2573 23.48 78.8613 24.524 78.7413 25.94H86.2653C86.2653 25.148 86.1213 24.44 85.8333 23.816C85.5693 23.192 85.1613 22.7 84.6093 22.34C84.0573 21.98 83.3613 21.8 82.5213 21.8ZM106.635 17.984C106.899 17.984 107.211 17.996 107.571 18.02C107.931 18.044 108.219 18.08 108.435 18.128L108.039 23.168C107.871 23.12 107.619 23.084 107.283 23.06C106.971 23.012 106.695 22.988 106.455 22.988C105.759 22.988 105.087 23.084 104.439 23.276C103.791 23.444 103.203 23.72 102.675 24.104C102.171 24.488 101.763 25.004 101.451 25.652C101.163 26.276 101.019 27.056 101.019 27.992V38H95.6548V18.344H99.7228L100.515 21.656H100.767C101.151 20.984 101.631 20.372 102.207 19.82C102.783 19.268 103.443 18.824 104.187 18.488C104.955 18.152 105.771 17.984 106.635 17.984ZM122.874 22.376H118.23V38H112.866V22.376H109.914V19.784L112.866 18.344V16.904C112.866 15.224 113.142 13.928 113.694 13.016C114.27 12.08 115.074 11.42 116.106 11.036C117.162 10.652 118.398 10.46 119.814 10.46C120.87 10.46 121.818 10.544 122.658 10.712C123.522 10.88 124.218 11.072 124.746 11.288L123.378 15.212C122.97 15.092 122.526 14.984 122.046 14.888C121.566 14.768 121.014 14.708 120.39 14.708C119.646 14.708 119.094 14.936 118.734 15.392C118.398 15.848 118.23 16.424 118.23 17.12V18.344H122.874V22.376ZM134.024 17.984C135.848 17.984 137.408 18.332 138.704 19.028C140.024 19.724 141.044 20.732 141.764 22.052C142.484 23.372 142.844 24.992 142.844 26.912V29.504H130.172C130.22 31.016 130.664 32.204 131.504 33.068C132.368 33.932 133.556 34.364 135.068 34.364C136.34 34.364 137.492 34.244 138.524 34.004C139.556 33.74 140.624 33.344 141.728 32.816V36.956C140.768 37.436 139.748 37.784 138.668 38C137.612 38.24 136.328 38.36 134.816 38.36C132.848 38.36 131.108 38 129.596 37.28C128.084 36.536 126.896 35.42 126.032 33.932C125.168 32.444 124.736 30.572 124.736 28.316C124.736 26.012 125.12 24.104 125.888 22.592C126.68 21.056 127.772 19.904 129.164 19.136C130.556 18.368 132.176 17.984 134.024 17.984ZM134.06 21.8C133.028 21.8 132.164 22.136 131.468 22.808C130.796 23.48 130.4 24.524 130.28 25.94H137.804C137.804 25.148 137.66 24.44 137.372 23.816C137.108 23.192 136.7 22.7 136.148 22.34C135.596 21.98 134.9 21.8 134.06 21.8ZM155.186 38.36C153.242 38.36 151.586 38.012 150.218 37.316C148.85 36.596 147.806 35.492 147.086 34.004C146.366 32.516 146.006 30.608 146.006 28.28C146.006 25.88 146.414 23.924 147.23 22.412C148.046 20.9 149.174 19.784 150.614 19.064C152.078 18.344 153.758 17.984 155.654 17.984C156.998 17.984 158.162 18.116 159.146 18.38C160.154 18.644 161.03 18.956 161.774 19.316L160.19 23.456C159.35 23.12 158.558 22.844 157.814 22.628C157.094 22.412 156.374 22.304 155.654 22.304C154.718 22.304 153.938 22.532 153.314 22.988C152.69 23.42 152.222 24.08 151.91 24.968C151.622 25.832 151.478 26.924 151.478 28.244C151.478 29.54 151.634 30.62 151.946 31.484C152.282 32.324 152.762 32.96 153.386 33.392C154.01 33.8 154.766 34.004 155.654 34.004C156.782 34.004 157.778 33.86 158.642 33.572C159.506 33.26 160.346 32.84 161.162 32.312V36.884C160.346 37.412 159.482 37.784 158.57 38C157.682 38.24 156.554 38.36 155.186 38.36ZM173.966 34.076C174.566 34.076 175.142 34.016 175.694 33.896C176.246 33.776 176.798 33.632 177.35 33.464V37.46C176.774 37.7 176.054 37.904 175.19 38.072C174.35 38.264 173.426 38.36 172.418 38.36C171.242 38.36 170.186 38.168 169.25 37.784C168.338 37.4 167.606 36.74 167.054 35.804C166.526 34.844 166.262 33.524 166.262 31.844V22.376H163.706V20.108L166.658 18.308L168.206 14.168H171.626V18.344H177.134V22.376H171.626V31.844C171.626 32.588 171.842 33.152 172.274 33.536C172.706 33.896 173.27 34.076 173.966 34.076Z" fill="#FBF601"/>
<path d="M187.091 38H181.727V12.296H196.451V16.76H187.091V23.384H195.803V27.848H187.091V38ZM206.417 18.344V38H201.053V18.344H206.417ZM203.753 10.64C204.545 10.64 205.229 10.832 205.805 11.216C206.381 11.576 206.669 12.26 206.669 13.268C206.669 14.252 206.381 14.936 205.805 15.32C205.229 15.704 204.545 15.896 203.753 15.896C202.937 15.896 202.241 15.704 201.665 15.32C201.113 14.936 200.837 14.252 200.837 13.268C200.837 12.26 201.113 11.576 201.665 11.216C202.241 10.832 202.937 10.64 203.753 10.64ZM220.302 34.076C220.902 34.076 221.478 34.016 222.03 33.896C222.582 33.776 223.134 33.632 223.686 33.464V37.46C223.11 37.7 222.39 37.904 221.526 38.072C220.686 38.264 219.762 38.36 218.754 38.36C217.578 38.36 216.522 38.168 215.586 37.784C214.674 37.4 213.942 36.74 213.39 35.804C212.862 34.844 212.598 33.524 212.598 31.844V22.376H210.042V20.108L212.994 18.308L214.542 14.168H217.962V18.344H223.47V22.376H217.962V31.844C217.962 32.588 218.178 33.152 218.61 33.536C219.042 33.896 219.606 34.076 220.302 34.076Z" fill="#43B438"/>
</svg>
